<svg xmlns="http://www.w3.org/2000/svg" width="470" height="128" viewBox="0 0 470 128">
    <g fill="none" fill-rule="evenodd" opacity=".6">
        <g>
            <g>
                <g>
                    <g>
                        <path fill="#6C84FA" fill-opacity=".1" d="M0 26c12.052 64.913 52.565 97.37 121.539 97.37S252.667 135.58 308 160H0V26z" transform="translate(-485 -480) translate(485 104) translate(0 376) rotate(-180 235 77)"/>
                        <path fill="#FF6000" fill-opacity=".1" d="M0 70.48C41.24 89.58 104.074 99.129 188.5 99.129S366.76 119.418 470 160H0V70.48z" transform="translate(-485 -480) translate(485 104) translate(0 376) rotate(-180 235 77)"/>
                        <path fill="#5AD363" fill-opacity=".106" d="M8 70.48c24.24 39.183 78.574 58.773 163 58.773S357.76 139.503 478 160H8V70.48z" transform="translate(-485 -480) translate(485 104) translate(0 376) rotate(-180 235 77) matrix(-1 0 0 1 486 0)"/>
                    </g>
                </g>
            </g>
        </g>
    </g>
</svg>
